<svg version="1.1" xmlns="http://www.w3.org/2000/svg" viewBox="0 0 1225.9999999999998 1554">
  <!-- svg-source:excalidraw -->
  <defs>
    <style>
      @font-face {
        font-family: "Virgil";
        src: url("https://excalidraw.com/FG_Virgil.woff2");
      }
      @font-face {
        font-family: "Cascadia";
        src: url("https://excalidraw.com/Cascadia.woff2");
      }
    </style>
  </defs>
  <rect x="0" y="0" width="1225.9999999999998" height="1554" fill="#ffffff"></rect><g transform="translate(81.5 690) rotate(0 105.5 21.5)"><text x="211" y="35" font-family="Cascadia" font-size="36px" fill="#1864ab" text-anchor="end" style="white-space: pre;">myReactApp</text></g><g transform="translate(575.5 626) rotate(0 31.5 21.5)"><text x="63" y="35" font-family="Cascadia" font-size="36px" fill="#1864ab" text-anchor="end" style="white-space: pre;">src</text></g><g transform="translate(563.5 353) rotate(0 63.5 21.5)"><text x="127" y="35" font-family="Cascadia" font-size="36px" fill="#1864ab" text-anchor="end" style="white-space: pre;">public</text></g><g transform="translate(909.5 511) rotate(0 84.5 21.5)"><text x="84.5" y="35" font-family="Cascadia" font-size="36px" fill="#000000" text-anchor="middle" style="white-space: pre;">index.js</text></g><g transform="translate(907.5 647) rotate(0 63.5 21.5)"><text x="63.5" y="35" font-family="Cascadia" font-size="36px" fill="#000000" text-anchor="middle" style="white-space: pre;">App.js</text></g><g transform="translate(905 718) rotate(0 74 21.5)"><text x="74" y="35" font-family="Cascadia" font-size="36px" fill="#000000" text-anchor="middle" style="white-space: pre;">App.css</text></g><g transform="translate(557 1415) rotate(0 95 21.5)"><text x="0" y="35" font-family="Cascadia" font-size="36px" fill="#000000" text-anchor="start" style="white-space: pre;">README.md</text></g><g transform="translate(551.5 1322) rotate(0 105.5 21.5)"><text x="0" y="35" font-family="Cascadia" font-size="36px" fill="#000000" text-anchor="start" style="white-space: pre;">.gitignore</text></g><g transform="translate(66 664.5) rotate(0 115 48.5)"><path d="M0.7607156152069381 -1.600418345884364 C84.51544178938775 -1.4360602752005929, 164.93501069670378 -0.19307335142074789, 228.402216526559 -0.3282464716395549 M-0.7283463429675903 0.15275861144780178 C50.278484160517614 1.4447788771794259, 100.99201966660635 1.98078566902886, 229.87452710330055 0.1840234208950307 M228.99216572009027 -1.1685255225747824 C228.40054266373627 36.63109467634931, 231.80673621813767 75.32176139932126, 230.6236492153257 97.17127298749983 M230.52689128834754 -0.4306201757863164 C229.38890938297845 26.08288137773052, 230.76825155154802 53.07284148074687, 229.4228218467906 96.03336642961949 M228.63169539017198 97.03693899193975 C171.033704186829 97.40817626543983, 108.60304387458024 95.95977849969789, -0.8506747818881458 97.82824347730669 M229.6812917209144 97.08966025914609 C148.06303898444787 98.48228886000061, 66.19387561887099 98.9528271717208, 0.41056117672310205 97.29804160086184 M0.920495068654418 98.21745901741087 C0.20209846560843292 67.23479235237464, 0.8208202487695963 34.46946615669876, -1.556530499830842 0.716242665424943 M0.7664133282378316 96.5377673683688 C-0.3830338350776583 59.16445042593404, 0.8515615530963987 22.73237474784254, 0.6949004204943776 -0.4618023158982396" stroke="#1864ab" stroke-width="4" fill="none"></path></g><g transform="translate(560 331.5) rotate(0 70 42.5)"><path d="M-1.3295269254595041 -1.5942188557237387 C48.2273452244699 1.9117212576791645, 93.29762031324208 0.6142151040956378, 139.8466209527105 0.2400082889944315 M-0.45739302318543196 -0.8186221839860082 C52.36938316281885 1.9262250948697328, 103.5328569272533 0.3994987595826387, 140.76427358109504 0.2500330386683345 M141.9208077546209 -0.6888766940683126 C138.63999687856995 20.931318626273423, 139.51934259361587 39.75921086128801, 141.72956023178995 84.60194873251021 M139.3391453595832 -0.11434755939990282 C140.60324314166792 31.82405089261011, 139.79209077288397 65.27394207380713, 139.97218605596572 84.3931075213477 M141.0830591674894 85.3490738812834 C86.44104178249836 86.90152139309794, 34.97246151603757 84.4429396474734, 0.18158177100121975 86.13366799987853 M140.86675235349685 84.002855646424 C103.82875357847661 86.70221949294209, 66.59138060454278 86.28718940094113, 0.7061195345595479 84.09605272393674 M-1.3628532532602549 86.71061187423766 C0.24514514007605614 65.0415677758865, 0.3238354901317507 41.7346395375207, -1.2021606210619211 -1.4953392799943686 M0.6925971480086446 85.35693152528256 C-0.9716892857570202 66.19105632742867, -0.2999028880614788 46.96239407360554, -0.008748981170356274 -0.3220700742676854" stroke="#1864ab" stroke-width="4" fill="none"></path></g><g transform="translate(562 611.5) rotate(0 54.5 40.5)"><path d="M-1.8078945521265268 -0.8779256995767355 C41.14678232269362 0.6640401576366275, 77.63359992932529 0.9409415815677493, 109.94578132592142 1.81038355268538 M-0.7476696399971843 -0.7611923040822148 C38.769660281483084 0.34274756182916466, 77.25933841615915 1.0121090637613088, 108.44165691453964 0.22092174272984266 M108.35585985146463 -1.2891099508851767 C110.3914819940459 24.373312093410643, 108.08677047337406 50.862388571910564, 109.20033124648035 79.18959885276854 M108.89240607339889 0.3335690377280116 C108.25000444144942 17.36576953837648, 109.3105285176728 32.634651977196334, 109.70590579230338 81.7785002766177 M108.23396018706262 79.49218969978392 C66.03230478493496 81.45913094432093, 22.893918044306332 82.44397533089854, 0.2306895013898611 80.61292158998549 M109.2534490795806 81.2405204353854 C80.06945395572112 80.77785365256481, 51.79243839271366 80.18397243293934, -0.26294908206909895 80.18485944252461 M1.038747763261199 82.39328038133681 C-1.0402656875085086 54.76913440739736, -1.9150417528580874 25.317468062974513, 1.0519317742437124 1.7986745182424784 M-0.6354573694989085 80.83731691818684 C-0.3698292981926352 58.276260825525966, 1.1393928218539804 34.37565376088023, 0.6784333558753133 0.656521457247436" stroke="#1864ab" stroke-width="4" fill="none"></path></g><g transform="translate(917.5 291) rotate(0 105.5 21.5)"><text x="105.5" y="35" font-family="Cascadia" font-size="36px" fill="#000000" text-anchor="middle" style="white-space: pre;">index.html</text></g><g transform="translate(915 369) rotate(0 116 21.5)"><text x="116" y="35" font-family="Cascadia" font-size="36px" fill="#000000" text-anchor="middle" style="white-space: pre;">logo192.png</text></g><g transform="translate(292 73) rotate(0 327 21.5)"><text x="327" y="35" font-family="Cascadia" font-size="36px" fill="#000000" text-anchor="middle" style="white-space: pre;">Folder structure of a React app</text></g><g transform="translate(909 581) rotate(0 95 21.5)"><text x="95" y="35" font-family="Cascadia" font-size="36px" fill="#000000" text-anchor="middle" style="white-space: pre;">index.css</text></g><g transform="translate(361.5 143) rotate(0 262.5 17)"><text x="262.5" y="27" font-family="Cascadia" font-size="28px" fill="#000000" text-anchor="middle" style="white-space: pre;">when created by create-react-app</text></g><g><g transform="translate(304 637.5) rotate(0 122.10431551652954 -129.43295090440665)"><path d="M-0.23768868707120416 0.9293863859027625 C40.38872145055792 -42.4708819558844, 202.86270755971776 -216.46349405031654, 243.73291766988106 -259.795288194716 M-1.821613977123052 0.37171029316261395 C39.189905365156 -42.98214039208368, 204.98333601565093 -215.82729769961912, 246.0302450101822 -258.8872445190512" stroke="#495057" stroke-width="4" fill="none"></path></g><g transform="translate(304 637.5) rotate(0 122.10431551652954 -129.43295090440665)"><path d="M235.50889697810106 -232.738866844068 C235.4185175038517 -238.81147002294023, 240.23710511330597 -246.73271319345338, 244.84856337159866 -259.84162058515477 M233.7710787006601 -230.964937196898 C236.30262016073982 -237.90361318218632, 240.28809514324064 -245.89451517752366, 246.09397631082678 -258.5136311046966" stroke="#495057" stroke-width="4" fill="none"></path></g><g transform="translate(304 637.5) rotate(0 122.10431551652954 -129.43295090440665)"><path d="M220.6788770560551 -246.92303095400266 C225.07760450509693 -248.74120285978034, 234.31363096526707 -252.43738915690324, 244.84856337159866 -259.84162058515477 M218.94105877861412 -245.14910130683265 C225.52765606790936 -248.19817278189745, 233.45266141679812 -252.42111320154945, 246.09397631082678 -258.5136311046966" stroke="#495057" stroke-width="4" fill="none"></path></g></g><g><g transform="translate(313 696.5) rotate(0 116.2931601636393 -19.967545849466717)"><path d="M0.5922004792839288 -0.29066448546946044 C39.60740617389485 -6.739003540246442, 194.2272075218461 -31.677831058048977, 233.14235332570996 -38.11715636465701 M-0.556032998431474 -1.4888672856800258 C38.360957897609765 -8.293748097444578, 193.01699010472146 -33.65277308245502, 232.054984361511 -39.644427213463956" stroke="#495057" stroke-width="4" fill="none"></path></g><g transform="translate(313 696.5) rotate(0 116.2931601636393 -19.967545849466717)"><path d="M205.35042798136487 -25.509154303514304 C213.44785026363314 -27.291253584646114, 217.89147122257359 -32.914745446399365, 233.29295810556067 -41.413828191924864 M206.6492380992429 -24.64595421362007 C214.81379008087595 -30.48722623336152, 225.01131843582772 -35.60224109688714, 232.12437783518834 -39.95205933472144" stroke="#495057" stroke-width="4" fill="none"></path></g><g transform="translate(313 696.5) rotate(0 116.2931601636393 -19.967545849466717)"><path d="M202.11448851488106 -45.77362316295131 C211.02355812048694 -43.09473168320394, 216.18208417224963 -44.24126340988646, 233.29295810556067 -41.413828191924864 M203.41329863275908 -44.910423073057075 C212.6683794344725 -43.43492366858707, 224.03818651788845 -41.20876109860651, 232.12437783518834 -39.95205933472144" stroke="#495057" stroke-width="4" fill="none"></path></g></g><g><g transform="translate(313.43708035809925 765.3859658061155) rotate(0 117.0527327101679 199.0606525082144)"><path d="M-0.06805305741727352 0.6108654107898472 C39.10615027886197 67.11677761160774, 196.51761808154808 331.8257477339826, 235.6683850622365 398.2353392103132 M-1.5629196419008076 -0.11403419388458125 C37.45860683488042 66.08719317781747, 195.82018709424585 330.0545596688151, 235.07956782288866 396.298378650472" stroke="#495057" stroke-width="4" fill="none"></path></g><g transform="translate(313.43708035809925 765.3859658061155) rotate(0 117.0527327101679 199.0606525082144)"><path d="M212.84193360726022 378.4869940641214 C220.47111303555502 383.78350087664217, 230.04397495877834 388.73012443484265, 233.85503211364167 394.73515758886975 M211.4155296908193 376.54354354523764 C220.98131952274719 385.16965778611024, 230.62889597598152 391.3412190029599, 235.2896403281765 396.7082813991238" stroke="#495057" stroke-width="4" fill="none"></path></g><g transform="translate(313.43708035809925 765.3859658061155) rotate(0 117.0527327101679 199.0606525082144)"><path d="M230.46472081857098 367.97236742830114 C231.8217960835555 376.95929717498956, 235.19266309523343 385.6063377052739, 233.85503211364167 394.73515758886975 M229.03831690213008 366.0289169094174 C231.68637505800342 378.82629422345013, 234.49971532572434 389.07549883291625, 235.2896403281765 396.7082813991238" stroke="#495057" stroke-width="4" fill="none"></path></g></g><g><g transform="translate(299.3723286821321 776.6578151969239) rotate(0 125.12363307829935 271.3923225933687)"><path d="M0.5452245321124791 0.13338960148394108 C42.394404179993984 90.60417249118912, 209.00796722294746 453.1858189049179, 250.87493747446666 543.6268299898135 M-0.6276713178679347 -0.8421848030760885 C41.05207648506384 89.25401051858442, 207.76238178966548 451.2613689515182, 249.74285495728233 542.1116429856421" stroke="#495057" stroke-width="4" fill="none"></path></g><g transform="translate(299.3723286821321 776.6578151969239) rotate(0 125.12363307829935 271.3923225933687)"><path d="M228.84098137548642 520.2255530424752 C236.6390042065473 527.5828592804559, 241.1764472989334 532.9417779980143, 251.7017512720076 543.9956510896237 M228.584140482419 520.2588037850671 C235.02380675524458 525.2030999290185, 239.22989850823848 532.0407561103536, 248.80621355939635 541.4947256315874" stroke="#495057" stroke-width="4" fill="none"></path></g><g transform="translate(299.3723286821321 776.6578151969239) rotate(0 125.12363307829935 271.3923225933687)"><path d="M247.47566515408175 511.63087079950697 C250.0825873936924 521.4935793584932, 249.37147926748608 529.2732330075218, 251.7017512720076 543.9956510896237 M247.21882426101433 511.6641215420989 C249.12090156594496 518.7136025047139, 248.71007590224414 527.6806716994374, 248.80621355939635 541.4947256315874" stroke="#495057" stroke-width="4" fill="none"></path></g></g><g><g transform="translate(714.626559061594 333.63246221881354) rotate(0 98.07436387371274 -9.083350455276673)"><path d="M0.7119329776614904 0.11676469780504695 C33.47434959957378 -2.8204789749719206, 164.13529642121873 -13.65645135389641, 196.52216868583122 -16.495366245545448 M-0.3734409384056927 -0.8675377811864019 C32.33604703908788 -3.6433761898241936, 163.76682776285344 -15.847059305738657, 196.17720528960237 -18.283465608358384" stroke="#495057" stroke-width="4" fill="none"></path></g><g transform="translate(714.626559061594 333.63246221881354) rotate(0 98.07436387371274 -9.083350455276673)"><path d="M169.1547031687326 -3.750324910811461 C177.94973843365364 -10.124017744757548, 185.29391575598765 -12.84063784757927, 195.92987704359004 -17.06522886954248 M169.95480253321446 -6.153902006640411 C179.0553772467521 -10.76422404053691, 189.32732495147042 -15.366421199568144, 195.77436789114037 -17.64752676744014" stroke="#495057" stroke-width="4" fill="none"></path></g><g transform="translate(714.626559061594 333.63246221881354) rotate(0 98.07436387371274 -9.083350455276673)"><path d="M167.41122111860363 -24.197336250533404 C176.91391604061192 -24.53643715926427, 184.77353479142278 -21.208121650475377, 195.92987704359004 -17.06522886954248 M168.2113204830855 -26.600913346362354 C178.14543055515384 -23.549150022695112, 189.07167389329535 -20.4779729504602, 195.77436789114037 -17.64752676744014" stroke="#495057" stroke-width="4" fill="none"></path></g></g><g><g transform="translate(712.9811097078027 372.24251774691044) rotate(0 96.31136258672927 9.729948833938664)"><path d="M-1.0094451460987328 0.27335266806185254 C31.19879076797514 3.2457718484165676, 161.1657507354393 15.636804992736582, 193.6321703195571 18.593160864375477 M0.6614574228599666 -0.6287411265447735 C32.6612620012462 2.4746730758684286, 160.525481493771 16.820240423002545, 192.58261086311182 20.088638794422096" stroke="#495057" stroke-width="4" fill="none"></path></g><g transform="translate(712.9811097078027 372.24251774691044) rotate(0 96.31136258672927 9.729948833938664)"><path d="M163.91167439642845 26.95285844786072 C172.94447097753215 25.074207663303426, 181.6419998062276 22.1294316286386, 190.6286741428449 21.609214789047783 M163.124342359896 27.64812298940474 C172.72611356192874 26.247058743931717, 179.86446581902192 23.48200196922711, 191.936038955897 19.416105627827292" stroke="#495057" stroke-width="4" fill="none"></path></g><g transform="translate(712.9811097078027 372.24251774691044) rotate(0 96.31136258672927 9.729948833938664)"><path d="M166.10660224750387 6.5493711450878696 C174.5399023658527 11.424097175678305, 182.5089429019151 15.25116178337209, 190.6286741428449 21.609214789047783 M165.3192702109714 7.24463568663189 C174.42706344999607 11.672635304432449, 180.9372452912438 14.746889875383506, 191.936038955897 19.416105627827292" stroke="#495057" stroke-width="4" fill="none"></path></g></g><g><g transform="translate(679.3373889658601 659.4027710285038) rotate(0 107.56031690575173 4.419051950145558)"><path d="M-0.6626110341399908 -0.09722897149622445 C35.43222943879661 1.1805734859158594, 179.91796865798517 6.831756276513139, 215.78324484564345 8.411944064125418 M1.1903794435970485 -1.1938781268708407 C37.28873368127268 0.2368620485750339, 179.98000236077218 8.56062350836272, 215.39186575753595 10.031982027161867" stroke="#495057" stroke-width="4" fill="none"></path></g><g transform="translate(679.3373889658601 659.4027710285038) rotate(0 107.56031690575173 4.419051950145558)"><path d="M186.55379937140864 20.613142260940048 C193.64838967746667 16.61412979615368, 201.9933214708862 13.841394040452112, 215.82609715243782 10.81564533540979 M187.3700139561541 18.107362509363565 C195.3965669448399 15.129372238274208, 204.00327552545957 13.044577955764652, 215.77609570348616 9.195702989753336" stroke="#495057" stroke-width="4" fill="none"></path></g><g transform="translate(679.3373889658601 659.4027710285038) rotate(0 107.56031690575173 4.419051950145558)"><path d="M187.59720540974484 0.11847694957175037 C194.57435923528018 0.9200470712537645, 202.67459474801052 2.953655338304659, 215.82609715243782 10.81564533540979 M188.4134199944903 -2.387302802004733 C196.1002990783399 1.0012031136874187, 204.3829490930258 5.281593242690228, 215.77609570348616 9.195702989753336" stroke="#495057" stroke-width="4" fill="none"></path></g></g><g><g transform="translate(679.9430655565113 677.3285505477711) rotate(0 103.79886456560348 31.90816814681523)"><path d="M-1.0569344434887171 -0.08252164386212835 C33.66635744888335 10.55523634980744, 174.0018135005608 52.613592078319485, 208.65466357469555 63.354341939054486 M0.589036244340241 -1.1714494522288441 C35.17905332759022 9.727997409248115, 173.26423790037626 54.35179557230949, 208.02042590495194 64.9877857458592" stroke="#495057" stroke-width="4" fill="none"></path></g><g transform="translate(679.9430655565113 677.3285505477711) rotate(0 103.79886456560348 31.90816814681523)"><path d="M177.91094824293478 67.28119693691414 C188.13653635846077 64.13115342926812, 199.59405569407022 65.66987651027576, 206.02732994634653 64.25276790417736 M177.51486362790538 65.88074485300612 C186.05208001292505 66.75958129201516, 195.30734146636692 65.06439215480356, 207.2875581248104 64.7271705339477" stroke="#495057" stroke-width="4" fill="none"></path></g><g transform="translate(679.9430655565113 677.3285505477711) rotate(0 103.79886456560348 31.90816814681523)"><path d="M184.08922902979543 47.71211803921054 C192.22219292483254 50.891926393507, 201.6640933476142 58.814918317833595, 206.02732994634653 64.25276790417736 M183.69314441476604 46.311665955302516 C190.40588905680247 52.97560441779297, 197.82194916934154 57.105899325500914, 207.2875581248104 64.7271705339477" stroke="#495057" stroke-width="4" fill="none"></path></g></g><g transform="translate(567.5 915.5) rotate(0 126.5 21.5)"><text x="253" y="35" font-family="Cascadia" font-size="36px" fill="#1864ab" text-anchor="end" style="white-space: pre;">node_modules</text></g><g transform="translate(557 896) rotate(0 137.5 42.5)"><path d="M-0.7159260748122407 -1.2728692616804165 C102.58414080184131 -0.47695532388202366, 205.33162929243986 0.9277956617000892, 273.69546357215165 -0.8031246704125924 M0.7156642176251149 -0.517743018070612 C68.35682405766894 -1.7480849616375573, 136.04620408030326 -2.0437535713014015, 275.08167230851285 -0.6128277795572614 M276.8854341860861 -0.20640343986451626 C275.03092646128505 26.958598331082616, 274.0176902366337 51.8057843213901, 274.38753459416336 84.68239485658705 M274.72910368163144 -0.43618397135287523 C276.35715381135236 29.266238768119365, 274.56886101593267 57.83373089693487, 274.15142622310674 85.49521558266133 M275.2756927502091 85.28293733989591 C177.03955537545383 84.90185280989384, 78.59887337392091 83.98799974571705, 0.3748339758929535 84.751378328762 M275.03300557004144 84.88588746803316 C167.32152511007092 85.95786340907983, 58.888645738208446 86.4808655226597, 0.0895189893668629 84.97187172784015 M1.3928269501775503 86.1497120205313 C1.7466846297029406 59.20125949708745, -0.48249016306363046 33.675347638316445, 0.7510179039090872 0.38523959554731846 M-0.06303245108574629 84.36055363994092 C-1.4972112883348019 60.263251887168735, -1.0304705907125027 35.226270988583565, 0.9661874445155263 0.8341342089697719" stroke="#1864ab" stroke-width="4" fill="none"></path></g><g><g transform="translate(300.09287576641896 800.9461208054797) rotate(0 123.29407232020986 310.9322687258013)"><path d="M0.6593945000320673 0.8319110479205845 C41.704142034606384 104.37288579108814, 205.9159522188517 517.1932227210451, 247.0417067572102 620.6232771303504 M-0.4535621167905628 0.22306040273979288 C40.398599233639736 103.93634032991405, 205.04292150987936 517.9078699160306, 246.2922132352181 621.6414770488627" stroke="#495057" stroke-width="4" fill="none"></path></g><g transform="translate(300.09287576641896 800.9461208054797) rotate(0 123.29407232020986 310.9322687258013)"><path d="M227.72814560343903 599.8670217975609 C231.847749094607 608.5428410129464, 240.43337745213748 613.8849036137203, 247.67645099589603 620.1824227334 M225.60703584307265 599.7777791520216 C235.02081433745656 607.3206387743227, 242.15783207630835 616.3678043602794, 246.62434973491358 622.2024538493715" stroke="#495057" stroke-width="4" fill="none"></path></g><g transform="translate(300.09287576641896 800.9461208054797) rotate(0 123.29407232020986 310.9322687258013)"><path d="M246.79721033065897 592.2847548004858 C243.92803923826136 603.8286021048599, 245.56423052921454 611.93390915794, 247.67645099589603 620.1824227334 M244.6761005702926 592.1955121549464 C246.5368637007833 602.822937766519, 246.05661167214657 614.8988923356817, 246.62434973491358 622.2024538493715" stroke="#495057" stroke-width="4" fill="none"></path></g></g><g><g transform="translate(315 737.5) rotate(0 116.05864725316871 98.98155770857818)"><path d="M0.34853580929338923 0.17205040119588366 C39.03371478455762 33.17969871424138, 194.38653044042488 165.8775564160198, 233.04491612650455 198.74634250067174 M-0.9276216201670469 -0.7832270835153758 C37.60925502829875 31.82280434207991, 193.8758400526953 163.8218503226526, 232.6454516292922 197.0155975647457" stroke="#495057" stroke-width="4" fill="none"></path></g><g transform="translate(315 737.5) rotate(0 116.05864725316871 98.98155770857818)"><path d="M204.80472065688392 188.3242544377254 C216.44990236156605 190.9408644046325, 224.80774015489968 193.85697933680657, 231.24169494559987 196.27671905199065 M204.72567899053266 186.90397799611404 C214.24036646211582 191.4223666547072, 226.39249003134492 195.0440286800003, 232.59250829810276 197.38805771863088" stroke="#495057" stroke-width="4" fill="none"></path></g><g transform="translate(315 737.5) rotate(0 116.05864725316871 98.98155770857818)"><path d="M218.0914208602616 172.68508565893785 C224.80790644844984 181.249080095402, 228.1457606520959 190.073988740398, 231.24169494559987 196.27671905199065 M218.01237919391033 171.2648092173265 C222.42240952046032 181.59054248385547, 229.52870221104598 191.15142188685851, 232.59250829810276 197.38805771863088" stroke="#495057" stroke-width="4" fill="none"></path></g></g><g><g transform="translate(844 905.5) rotate(0 29.327464583888627 -1.4570711109786885)"><path d="M-0.9356276895850897 -0.48420396186411374 C8.837582545851667 -1.0195958608140547, 49.7262444032977 -2.2897417499373356, 59.59055685736239 -2.4299382600933312 M0.7740290440432727 -1.7840149871818722 C10.357653364272167 -2.2211198848796387, 48.95640384607638 -0.8632793804320196, 58.95255374385044 -1.1182305954210459" stroke="#495057" stroke-width="4" fill="none"></path></g><g transform="translate(844 905.5) rotate(0 29.327464583888627 -1.4570711109786885)"><path d="M30.333588310779806 9.752635207132139 C40.90793953217221 3.9858943719239406, 53.297235055341105 -0.45407811195535697, 57.77397518267855 -0.28395692368969305 M31.8062781712802 7.964891421713569 C37.43933705208355 5.58118466559238, 45.83851817452006 4.583567640504784, 59.073757839743045 -0.4753177633322774" stroke="#495057" stroke-width="4" fill="none"></path></g><g transform="translate(844 905.5) rotate(0 29.327464583888627 -1.4570711109786885)"><path d="M30.48536383356301 -10.437573361772364 C41.13379282078789 -8.547863884491303, 53.46552374016791 -5.330202677700363, 57.77397518267855 -0.28395692368969305 M31.958053694063405 -12.225317147190934 C37.693354962051686 -9.336360069698452, 46.05288922062278 -5.059882590831333, 59.073757839743045 -0.4753177633322774" stroke="#495057" stroke-width="4" fill="none"></path></g></g><g><g transform="translate(841 930.5) rotate(0 30.20643838237038 3.9224052602518213)"><path d="M0.7078428480774164 -0.517880455031991 C11.022150470192232 0.792013315980633, 50.8770012670507 5.761495137835542, 60.7925551507622 7.229682442173361 M-0.37967838602140547 1.8246283607371154 C9.854119448891531 3.32658410973226, 49.226308063299705 7.039856873421618, 59.73560114128515 8.36269097553566" stroke="#495057" stroke-width="4" fill="none"></path></g><g transform="translate(841 930.5) rotate(0 30.20643838237038 3.9224052602518213)"><path d="M29.73494706505713 15.158723090040358 C35.438301818018964 12.50933896582034, 43.29417801309367 11.36346829456182, 61.596470424141735 6.3838437456823875 M30.044156554320725 15.009979332993598 C38.67083720997672 14.463258954613696, 45.109278657427495 11.37664536070052, 59.45914542878047 7.5689926618896415" stroke="#495057" stroke-width="4" fill="none"></path></g><g transform="translate(841 930.5) rotate(0 30.20643838237038 3.9224052602518213)"><path d="M31.961188242956936 -5.241371336301469 C37.092451891873395 -3.616197817381253, 44.48328310965276 -0.5006427529651383, 61.596470424141735 6.3838437456823875 M32.27039773222053 -5.3901150933482285 C40.370654618543995 -0.7554891063516487, 46.24525955238299 1.3245963226823863, 59.45914542878047 7.5689926618896415" stroke="#495057" stroke-width="4" fill="none"></path></g></g><g><g transform="translate(842 955.5) rotate(0 32.54694659013296 6.878852310590446)"><path d="M1.1612055625766515 0.553711137548089 C11.600415536388754 2.89169035491844, 52.02885223291814 10.892801858360567, 62.39032058380544 12.964900872483849 M0.3116997535899282 -0.20119446057826273 C11.170973674841225 2.343591594112416, 54.377880786247545 11.630099622222284, 64.78219342667609 13.958899081759155" stroke="#495057" stroke-width="4" fill="none"></path></g><g transform="translate(842 955.5) rotate(0 32.54694659013296 6.878852310590446)"><path d="M35.97196679532864 16.93576575621255 C41.67234385871143 17.09780956987059, 50.02104148120846 13.997029020260928, 62.87536052864044 13.228078003115952 M35.22515408572146 17.539460307836908 C40.978870328360244 17.74516004392226, 48.989495250585634 16.660010593352894, 64.05308532871305 13.181902308091521" stroke="#495057" stroke-width="4" fill="none"></path></g><g transform="translate(842 955.5) rotate(0 32.54694659013296 6.878852310590446)"><path d="M40.36153543491574 -3.110473031754461 C44.65706805323841 2.698743107989656, 51.77849322470972 5.202658288452735, 62.87536052864044 13.228078003115952 M39.61472272530855 -2.5067784801301034 C44.51259420007425 2.271746565654039, 51.52772798598335 5.732796222197388, 64.05308532871305 13.181902308091521" stroke="#495057" stroke-width="4" fill="none"></path></g></g><g><g transform="translate(838 980.5) rotate(0 30.1972985802405 9.609766787160197)"><path d="M1.0005668018013238 0.7600897517055272 C10.498806791876753 3.835984016085664, 48.33370201724271 14.996740989511212, 58.09240457750857 18.061360916122794 M0.06672564340755338 0.11353292601183052 C9.841020339460421 3.3461394273924325, 50.492776707342514 15.701106797227014, 60.32787151707336 19.106000648308544" stroke="#495057" stroke-width="4" fill="none"></path></g><g transform="translate(838 980.5) rotate(0 30.1972985802405 9.609766787160197)"><path d="M31.61583987884648 18.719698181417574 C40.53744519173259 20.46226089824506, 54.09731430810131 18.6049716720387, 59.855237851645796 20.60633679429069 M29.98033318277873 21.17597229503541 C36.67818837512825 19.51535588842721, 44.34891043824556 19.39389790852601, 61.25443312877789 19.161559237595647" stroke="#495057" stroke-width="4" fill="none"></path></g><g transform="translate(838 980.5) rotate(0 30.1972985802405 9.609766787160197)"><path d="M37.90554988418575 -0.8138511743593853 C44.29799563877671 8.636621489037847, 55.39284111077478 14.434798250865397, 59.855237851645796 20.60633679429069 M36.270043188118 1.6424229392584522 C41.45266216698416 4.5378268721983455, 47.63709345686366 9.032246913927914, 61.25443312877789 19.161559237595647" stroke="#495057" stroke-width="4" fill="none"></path></g></g><g><g transform="translate(829 993.5) rotate(0 33.91524622701104 19.365612332336582)"><path d="M-1.0833431515842675 -0.457270124182105 C10.319881638512015 6.206572613492608, 57.361045309528706 32.21813626028597, 68.91383560560644 38.95851822830737 M0.5487629644945264 -1.7429408847168089 C11.743159480579198 5.211287038438022, 56.22447522807867 33.823734585158526, 67.92055383492261 40.474165549390015" stroke="#495057" stroke-width="4" fill="none"></path></g><g transform="translate(829 993.5) rotate(0 33.91524622701104 19.365612332336582)"><path d="M37.74972113336314 34.40371814383173 C48.426566159949346 35.557435005459254, 60.17187197558016 37.493560985288234, 66.78588832151145 41.035167679078874 M38.02013485154946 35.544308715630116 C46.873002202476336 37.1111506265366, 57.16476354882263 38.90282085228006, 67.93168622143567 39.84559492103755" stroke="#495057" stroke-width="4" fill="none"></path></g><g transform="translate(829 993.5) rotate(0 33.91524622701104 19.365612332336582)"><path d="M48.43975299106663 16.88677716467889 C55.31952530580473 23.920892982497985, 63.4173148690934 31.833926025212378, 66.78588832151145 41.035167679078874 M48.710166709252945 18.027367736477274 C54.1764732835675 24.903879184614567, 61.189707577738666 32.06782197567526, 67.93168622143567 39.84559492103755" stroke="#495057" stroke-width="4" fill="none"></path></g></g><g transform="translate(871 952) rotate(315 137 21.5)"><text x="137" y="35" font-family="Cascadia" font-size="36px" fill="#000000" text-anchor="middle" style="white-space: pre;">many files...</text></g><g transform="translate(569.5 1179.5) rotate(0 42 21.5)"><text x="84" y="35" font-family="Cascadia" font-size="36px" fill="#1864ab" text-anchor="end" style="white-space: pre;">.git</text></g><g transform="translate(566.5 1166) rotate(0 54.5 40.5)"><path d="M-1.1437978204339743 -0.2645901683717966 C34.500408821832394 -0.6001402038242667, 68.65370398033411 2.360681722769514, 110.42406999506056 1.282731568440795 M-0.9712690534070134 -0.12847700994461775 C26.09494708394632 -0.5716767618525773, 50.989733587205414 0.1937270751129836, 109.18095951061696 -0.90346300881356 M109.77016364969313 0.5695343371480703 C109.66382992167956 33.166175383236265, 110.7053511728812 64.32901477832348, 108.03553550876677 81.33454368077219 M109.87037377338856 -0.18758476059883833 C107.33484135373496 27.406092916335915, 108.46178246839904 55.35059781037272, 109.13050009589642 80.37012901622802 M108.46828382648528 82.52858827076852 C80.25902673127129 82.58292286439799, 54.408589597605165 81.00688337131403, -1.1429979857057333 79.34423199854791 M109.63168956618756 81.28704943973571 C85.05923509346322 81.23056282234379, 61.080914951488374 80.97493814063259, -0.9695551516488194 81.6032747598365 M-1.51666141115129 82.23702231608331 C0.3715892159473151 52.21204010182991, -0.1185705936420709 21.932821666263045, -0.9127389844506979 1.176481580361724 M-0.0811510207131505 81.75907915551215 C-0.46248182973824437 47.975486375857145, 0.7544270125869662 17.215633410960436, 0.8883316097781062 0.6551355989649892" stroke="#1864ab" stroke-width="4" fill="none"></path></g><g><g transform="translate(695.9798860939825 1166.5878996543588) rotate(0 96.97152926054775 -8.599829238653228)"><path d="M0.7988117907196284 1.0439498271793128 C33.353170927794004 -2.045321216434271, 161.77220269904151 -15.199398372322472, 194.18400926958756 -18.24360830448586 M-0.24095074849203235 0.5464195411093535 C32.22925926574814 -2.465159832444072, 160.5531583421552 -14.559549630787375, 193.07957038657727 -17.31293009458128" stroke="#495057" stroke-width="4" fill="none"></path></g><g transform="translate(695.9798860939825 1166.5878996543588) rotate(0 96.97152926054775 -8.599829238653228)"><path d="M167.66341337002075 -5.0599984179972495 C169.5284300611926 -6.042718066208876, 176.79440060577235 -11.032801264700861, 193.08936568910244 -16.48388190245274 M165.7220140574426 -4.346215877474734 C171.8552332222985 -7.337508310327872, 179.51738984488068 -10.618263958265235, 193.59984268901857 -17.248618950639102" stroke="#495057" stroke-width="4" fill="none"></path></g><g transform="translate(695.9798860939825 1166.5878996543588) rotate(0 96.97152926054775 -8.599829238653228)"><path d="M165.82155925852956 -25.498383281234908 C168.1135631879121 -22.307149125247417, 175.756784509068 -23.11101772969824, 193.08936568910244 -16.48388190245274 M163.88015994595142 -24.784600740712392 C170.32521316820936 -22.664422454337384, 178.44647792002294 -20.850622251987488, 193.59984268901857 -17.248618950639102" stroke="#495057" stroke-width="4" fill="none"></path></g></g><g><g transform="translate(689.5946723480752 1191.0001104078815) rotate(0 100.47474942246458 -3.8596295328065935)"><path d="M1.0439498271793128 -0.297892227396369 C34.113847933107365 -1.3830876409945478, 165.59644737538574 -4.5720760896491965, 198.71140659276398 -5.7123606908694455 M0.1328847571089864 -1.4998895921185613 C33.52808549608415 -2.9916851889652603, 167.68910045974582 -6.645040945044454, 200.81661408782008 -7.421366838216836" stroke="#495057" stroke-width="4" fill="none"></path></g><g transform="translate(689.5946723480752 1191.0001104078815) rotate(0 100.47474942246458 -3.8596295328065935)"><path d="M172.40485034501933 1.6405059060141207 C183.19500520985716 -0.4623229995695439, 189.8701698188893 -3.793986079002089, 201.64566227994862 -8.436084601506646 M173.11863288554184 2.6375194683730365 C179.51990770726314 1.082242602291239, 185.78020009221504 -0.8660831722527007, 200.88092523176226 -7.058137605376596" stroke="#495057" stroke-width="4" fill="none"></path></g><g transform="translate(689.5946723480752 1191.0001104078815) rotate(0 100.47474942246458 -3.8596295328065935)"><path d="M171.87279959512338 -18.873804328194936 C182.97207599013544 -14.327756535263308, 189.81980318856216 -11.005914297110525, 201.64566227994862 -8.436084601506646 M172.5865821356459 -17.87679076583602 C178.92073847391043 -14.75491428759738, 185.30230779003668 -12.027158709281851, 200.88092523176226 -7.058137605376596" stroke="#495057" stroke-width="4" fill="none"></path></g></g><g><g transform="translate(692.5681109087768 1205.0328740496188) rotate(0 100.19176708590248 5.322696065763012)"><path d="M-0.297892227396369 -1.1557086501270533 C33.015876874017266 0.39258568516621994, 167.42274648540987 8.395597208601734, 200.68142639920143 10.333715838938952 M1.7465756238810717 0.8519403632171452 C34.90135550503313 3.1115834520819283, 167.41258597283957 9.977494928048303, 200.14694953700555 11.801100781653076" stroke="#495057" stroke-width="4" fill="none"></path></g><g transform="translate(692.5681109087768 1205.0328740496188) rotate(0 100.19176708590248 5.322696065763012)"><path d="M169.51997796494808 21.846978979024815 C181.66861704496702 16.33827357401203, 192.42154383354935 15.031916125546942, 199.13223177371574 10.35994901927188 M170.516991527307 20.688647606249678 C177.40217768294232 18.705611496368917, 183.93296402056134 16.90023346034275, 200.5101787698458 11.239399212878197" stroke="#495057" stroke-width="4" fill="none"></path></g><g transform="translate(692.5681109087768 1205.0328740496188) rotate(0 100.19176708590248 5.322696065763012)"><path d="M170.62124761563854 1.3553414763187916 C182.544465547219 3.3554736289005875, 192.8937025087831 9.560687568606813, 199.13223177371574 10.35994901927188 M171.61826117799745 0.19701010354365422 C178.23291559038248 2.4819862826279864, 184.53445733720517 4.942227526229678, 200.5101787698458 11.239399212878197" stroke="#495057" stroke-width="4" fill="none"></path></g></g><g><g transform="translate(694.3060789408391 1220.6557143731043) rotate(0 94.43329494427894 13.281101937647918)"><path d="M-1.1557086501270533 0.7877497170120478 C30.340682801790535 5.038197788254668, 158.1360827917233 20.945802062532557, 190.02229853868485 25.204796200059356 M0.4384055792167785 0.15571437310427427 C31.673756747692824 4.580640437596788, 157.51078485399486 22.389049971817684, 189.0042127665505 26.406489502191544" stroke="#495057" stroke-width="4" fill="none"></path></g><g transform="translate(694.3060789408391 1220.6557143731043) rotate(0 94.43329494427894 13.281101937647918)"><path d="M161.00331930569888 32.56383864003746 C169.9847463634111 30.60938569226113, 183.22393204071295 27.11595566217875, 187.5630610041693 24.569767599478364 M159.84498793292374 32.75014341137884 C167.93186167929153 31.79346578342644, 176.1478907740085 29.851052970491356, 188.44251119777562 26.51006317000836" stroke="#495057" stroke-width="4" fill="none"></path></g><g transform="translate(694.3060789408391 1220.6557143731043) rotate(0 94.43329494427894 13.281101937647918)"><path d="M163.76065628931792 12.228718892551177 C171.62452484535112 18.117316612831615, 183.79663263860692 22.49349290250003, 187.5630610041693 24.569767599478364 M162.60232491654278 12.41502366389256 C169.9617405014446 17.123543721598015, 177.4061241356096 20.87194887402223, 188.44251119777562 26.51006317000836" stroke="#495057" stroke-width="4" fill="none"></path></g></g><g><g transform="translate(696.2039671800703 1240.2509456347116) rotate(0 95.36836658022366 19.273193976515927)"><path d="M0.7877497170120478 -0.13341011144220838 C32.2737869189214 6.435029921379554, 157.1237477158662 31.959325910344067, 188.61833098405972 38.254931546803526 M-0.25782041089609264 -1.2490543652884663 C31.650305747250098 5.6253921760028796, 159.40979996797628 33.14758751668344, 190.99455357134343 39.79544231832024" stroke="#495057" stroke-width="4" fill="none"></path></g><g transform="translate(696.2039671800703 1240.2509456347116) rotate(0 95.36836658022366 19.273193976515927)"><path d="M161.06105271049177 42.88264064020795 C169.5089806155481 43.439654962674304, 176.66025268117428 40.02664668157862, 189.15783166863025 39.39247645042833 M161.24735748183315 44.000258060128814 C171.40121877763858 42.6306912321485, 180.80313082945847 40.668531185493904, 191.09812723916025 39.399961503930356" stroke="#495057" stroke-width="4" fill="none"></path></g><g transform="translate(696.2039671800703 1240.2509456347116) rotate(0 95.36836658022366 19.273193976515927)"><path d="M165.3426355488164 22.813060405823286 C172.41908789407208 28.9208412659379, 178.3921726289084 31.030492725246702, 189.15783166863025 39.39247645042833 M165.52894032015777 23.930677825744148 C174.11880987712493 29.024706682169246, 182.14321021128282 33.51952364270018, 191.09812723916025 39.399961503930356" stroke="#495057" stroke-width="4" fill="none"></path></g></g><g transform="translate(858.4617875909662 1198) rotate(315 137 21.5)"><text x="137" y="35" font-family="Cascadia" font-size="36px" fill="#000000" text-anchor="middle" style="white-space: pre;">many files...</text></g><g><g transform="translate(678.2255248494448 616.2365536103025) rotate(0 111.18063971865922 -39.24598719215953)"><path d="M-0.3872375752776861 -1.144996229186654 C36.886154130908324 -13.974906280192858, 185.3542989666883 -65.03937576936248, 222.74851701259598 -77.86104111516849 M1.6103239683620632 0.8682768051512539 C38.75884412434571 -12.186233064442254, 184.53478251955772 -65.89779521010507, 221.5311575377545 -79.3602511894703" stroke="#495057" stroke-width="4" fill="none"></path></g><g transform="translate(678.2255248494448 616.2365536103025) rotate(0 111.18063971865922 -39.24598719215953)"><path d="M196.67943958929183 -60.886460161887044 C205.88657836244118 -63.12529075681091, 210.7078771269955 -67.89533732641861, 220.35210577530773 -77.36787625707687 M198.75833708877119 -60.425262794017726 C208.07563453521945 -67.4178963119416, 217.44933595462666 -75.07983153136092, 221.62750086413683 -78.7715433875844" stroke="#495057" stroke-width="4" fill="none"></path></g><g transform="translate(678.2255248494448 616.2365536103025) rotate(0 111.18063971865922 -39.24598719215953)"><path d="M189.6228884249145 -80.1562574636327 C200.28098795332502 -78.02349797529892, 206.6948131689494 -78.44472580967161, 220.35210577530773 -77.36787625707687 M191.70178592439385 -79.69506009576338 C203.86367234766246 -79.04864849374445, 216.03542387325564 -79.06976072040813, 221.62750086413683 -78.7715433875844" stroke="#495057" stroke-width="4" fill="none"></path></g></g><g><g transform="translate(681.1846419997514 636.1539699964225) rotate(0 106.34668815601606 -15.819923125449577)"><path d="M-0.9076790001243353 -0.1730150017887353 C34.65497350475437 -5.224602363826705, 177.72349687771236 -24.73546775788999, 213.6010553121565 -29.762929067071514 M0.816650795470923 -1.30945182306692 C36.235956494181075 -6.744719747481865, 177.29612345747015 -26.867836270099495, 212.85925539290514 -31.46683124911039" stroke="#495057" stroke-width="4" fill="none"></path></g><g transform="translate(681.1846419997514 636.1539699964225) rotate(0 106.34668815601606 -15.819923125449577)"><path d="M186.03586153160134 -16.815945104348177 C196.0479400625055 -19.81563988781742, 203.54820318736162 -24.222552188025855, 212.9858737130275 -31.473900622613716 M185.76875934317061 -18.10568284394842 C193.0694596736873 -21.778621675231783, 198.16269699797806 -24.28315061784935, 213.02787611620482 -31.97589685015379" stroke="#495057" stroke-width="4" fill="none"></path></g><g transform="translate(681.1846419997514 636.1539699964225) rotate(0 106.34668815601606 -15.819923125449577)"><path d="M183.2473362074753 -37.146811512412235 C194.2408960511612 -33.644712573279286, 202.63003422161376 -31.570923533202404, 212.9858737130275 -31.473900622613716 M182.9802340190446 -38.436549252012476 C190.8874283887788 -37.29704697041577, 196.64353605370005 -34.96865285344066, 213.02787611620482 -31.97589685015379" stroke="#495057" stroke-width="4" fill="none"></path></g></g><g transform="translate(10 10) rotate(0 602.9999999999999 767)"><path d="M-0.6943037621676922 0.4630964033305645 C242.48518709111954 3.7650137476250523, 484.22936376594 3.6168341450020662, 1205.534361708909 -0.02594924047589302 M-0.34016003645956516 0.1348800603300333 C392.9805001573637 3.721189218096434, 784.9606326259672 3.348938649229704, 1205.6832069274035 0.0815927091985941 M1205.3947069771586 -0.49950556829571724 C1202.7806452383024 522.9922505611554, 1201.9924589504226 1045.050753974542, 1205.8484830744562 1533.7264870874583 M1205.8864037390797 -0.20511087737977507 C1200.5974423485918 548.0427417309955, 1200.4755925375146 1095.8901125431062, 1205.9923508878794 1534.3697088424117 M1206.4342861063776 1534.2246409647166 C900.2610941169781 1535.89326207114, 593.884863339737 1535.4856662697866, 0.3937636502087116 1533.3651592247188 M1206.2195863958445 1533.6549138251692 C783.7040921961888 1538.3937836553825, 361.2002919510006 1538.2094321038498, 0.04887300692498684 1533.9489172760398 M-0.6373583666980267 1534.4742811195551 C-4.7116665385589 1155.874849425815, -3.689240338645875 777.7434833753854, 0.4654426939785481 0.18428103849291802 M0.17915111742913725 1533.8035894218833 C3.1718059040084485 1183.325154612027, 2.9745448685660962 832.0334694512188, -0.13722915686666967 -0.1886311110109091" stroke="#000000" stroke-width="1" fill="none"></path></g></svg>